# xmcd CD database file
#
# Track frame offsets:
#	150
#	18290
#	33832
#
# Disc length: 695 seconds
#
# Revision: 0
# Processed by: cddbd v1.5.1PL0 Copyright (c) Steve Scherf et al.
# Submitted via: CDex 1.60beta1
#
DISCID=1502b503
DTITLE=高木ブー - GOOD!
DYEAR=1997
DGENRE=Pop
TTITLE0=Good!
TTITLE1=Sutekina Rhythm
TTITLE2=Good! -Hawaiian Version-
EXTD=YEAR: 1997
EXTT0=
EXTT1=
EXTT2=
PLAYORDER=
